<svg width="18" height="18" viewBox="0 0 18 18" fill="none" xmlns="http://www.w3.org/2000/svg">
<path d="M8.46 6.3H15.66C15.255 5.265 14.6364 4.3761 13.8042 3.6333C12.9714 2.8911 12.015 2.37 10.935 2.07L8.46 6.3ZM6.39 8.1L9.99 1.89C9.825 1.86 9.66 1.8375 9.495 1.8225C9.33 1.8075 9.165 1.8 9 1.8C8.01 1.8 7.0875 1.9875 6.2325 2.3625C5.3775 2.7375 4.62 3.24 3.96 3.87L6.39 8.1ZM2.025 10.8H6.93L3.33 4.59C2.85 5.205 2.475 5.8839 2.205 6.6267C1.935 7.3689 1.8 8.16 1.8 9C1.8 9.315 1.8186 9.6186 1.8558 9.9108C1.8936 10.2036 1.95 10.5 2.025 10.8V10.8ZM7.065 15.93L9.495 11.7H2.34C2.745 12.735 3.3639 13.6236 4.1967 14.3658C5.0289 15.1086 5.985 15.63 7.065 15.93V15.93ZM9 16.2C9.99 16.2 10.9125 16.0125 11.7675 15.6375C12.6225 15.2625 13.38 14.76 14.04 14.13L11.61 9.9L8.01 16.11C8.175 16.14 8.3364 16.1625 8.4942 16.1775C8.6514 16.1925 8.82 16.2 9 16.2ZM14.67 13.41C15.15 12.795 15.525 12.1161 15.795 11.3733C16.065 10.6311 16.2 9.84 16.2 9C16.2 8.685 16.1814 8.3814 16.1442 8.0892C16.1064 7.7964 16.05 7.5 15.975 7.2H11.07L14.67 13.41ZM9 18C7.77 18 6.6075 17.7636 5.5125 17.2908C4.4175 16.8186 3.4614 16.1736 2.6442 15.3558C1.8264 14.5386 1.1814 13.5825 0.7092 12.4875C0.2364 11.3925 0 10.23 0 9C0 7.755 0.2364 6.5889 0.7092 5.5017C1.1814 4.4139 1.8264 3.4614 2.6442 2.6442C3.4614 1.8264 4.4175 1.1811 5.5125 0.7083C6.6075 0.2361 7.77 0 9 0C10.245 0 11.4111 0.2361 12.4983 0.7083C13.5861 1.1811 14.5386 1.8264 15.3558 2.6442C16.1736 3.4614 16.8186 4.4139 17.2908 5.5017C17.7636 6.5889 18 7.755 18 9C18 10.23 17.7636 11.3925 17.2908 12.4875C16.8186 13.5825 16.1736 14.5386 15.3558 15.3558C14.5386 16.1736 13.5861 16.8186 12.4983 17.2908C11.4111 17.7636 10.245 18 9 18Z" fill="#707070"/>
</svg>
