<svg width="18" height="15" viewBox="0 0 18 15" fill="none" xmlns="http://www.w3.org/2000/svg">
<path d="M11.7 10.8H14.4C14.655 10.8 14.8686 10.7136 15.0408 10.5408C15.2136 10.3686 15.3 10.155 15.3 9.9V4.5C15.3 4.245 15.2136 4.0311 15.0408 3.8583C14.8686 3.6861 14.655 3.6 14.4 3.6H11.7C11.445 3.6 11.2314 3.6861 11.0592 3.8583C10.8864 4.0311 10.8 4.245 10.8 4.5V9.9C10.8 10.155 10.8864 10.3686 11.0592 10.5408C11.2314 10.7136 11.445 10.8 11.7 10.8ZM12.6 9V5.4H13.5V9H12.6ZM6.3 10.8H9C9.255 10.8 9.4689 10.7136 9.6417 10.5408C9.8139 10.3686 9.9 10.155 9.9 9.9V4.5C9.9 4.245 9.8139 4.0311 9.6417 3.8583C9.4689 3.6861 9.255 3.6 9 3.6H6.3C6.045 3.6 5.8314 3.6861 5.6592 3.8583C5.4864 4.0311 5.4 4.245 5.4 4.5V9.9C5.4 10.155 5.4864 10.3686 5.6592 10.5408C5.8314 10.7136 6.045 10.8 6.3 10.8ZM7.2 9V5.4H8.1V9H7.2ZM2.7 10.8H4.5V3.6H2.7V10.8ZM0 14.4V0H18V14.4H0ZM1.8 1.8V12.6V1.8ZM1.8 12.6H16.2V1.8H1.8V12.6Z" fill="#707070"/>
</svg>
