<svg width="18" height="23" viewBox="0 0 18 23" fill="none" xmlns="http://www.w3.org/2000/svg">
<path d="M9 11.25C9.61875 11.25 10.1486 11.0295 10.5896 10.5885C11.0299 10.1482 11.25 9.61875 11.25 9C11.25 8.38125 11.0299 7.85137 10.5896 7.41037C10.1486 6.97012 9.61875 6.75 9 6.75C8.38125 6.75 7.85175 6.97012 7.4115 7.41037C6.9705 7.85137 6.75 8.38125 6.75 9C6.75 9.61875 6.9705 10.1482 7.4115 10.5885C7.85175 11.0295 8.38125 11.25 9 11.25ZM9 19.5188C11.2875 17.4188 12.9844 15.5108 14.0906 13.7948C15.1969 12.0795 15.75 10.5562 15.75 9.225C15.75 7.18125 15.0982 5.50762 13.7947 4.20412C12.492 2.90137 10.8937 2.25 9 2.25C7.10625 2.25 5.50762 2.90137 4.20412 4.20412C2.90137 5.50762 2.25 7.18125 2.25 9.225C2.25 10.5562 2.80312 12.0795 3.90937 13.7948C5.01562 15.5108 6.7125 17.4188 9 19.5188ZM9 22.5C5.98125 19.9313 3.72675 17.5451 2.2365 15.3416C0.7455 13.1389 0 11.1 0 9.225C0 6.4125 0.904875 4.17187 2.71463 2.50312C4.52363 0.834375 6.61875 0 9 0C11.3812 0 13.4764 0.834375 15.2854 2.50312C17.0951 4.17187 18 6.4125 18 9.225C18 11.1 17.2549 13.1389 15.7646 15.3416C14.2736 17.5451 12.0188 19.9313 9 22.5Z" fill="#707070"/>
</svg>
